<?xml version="1.0" standalone="no"?>
<!DOCTYPE svg PUBLIC "-//W3C//DTD SVG 20010904//EN"
 "http://www.w3.org/TR/2001/REC-SVG-20010904/DTD/svg10.dtd">
<svg version="1.0" xmlns="http://www.w3.org/2000/svg"
 width="512.000000pt" height="512.000000pt" viewBox="0 0 512.000000 512.000000"
 preserveAspectRatio="xMidYMid meet">
<metadata>
Created by potrace 1.14, written by Peter Selinger 2001-2017
</metadata>
<g transform="translate(0.000000,512.000000) scale(0.100000,-0.100000)"
fill="#000000" stroke="none">
<path d="M0 2560 l0 -2560 2560 0 2560 0 0 2560 0 2560 -2560 0 -2560 0 0
-2560z m2563 -8 l1957 -1957 -150 -150 -150 -150 -1363 1363 -1362 1362 -233
-232 -232 -233 487 -487 488 -488 -150 -150 -150 -150 -640 640 -640 640 383
382 382 383 -448 448 -447 448 147 144 c81 80 150 145 155 145 4 0 889 -881
1966 -1958z m1750 -374 l-383 -383 -150 150 -150 150 231 231 230 230 -487
493 -487 492 149 150 149 149 640 -640 640 -640 -382 -382z"/>
</g>
</svg>
